<svg width="200" height="182" viewBox="0 0 200 182" fill="none" xmlns="http://www.w3.org/2000/svg">
<path d="M79.5139 1.73611H101.042V128.819C101.042 140.162 98.9583 149.797 94.7916 157.726C90.625 165.654 84.7511 171.672 77.1701 175.781C69.5891 179.89 60.6481 181.944 50.3472 181.944C40.625 181.944 31.9734 180.179 24.3924 176.649C16.8113 173.061 10.8507 167.969 6.51041 161.371C2.17014 154.774 0 146.933 0 137.847H21.1805C21.1805 142.882 22.4248 147.28 24.9132 151.042C27.4595 154.745 30.9317 157.639 35.3298 159.722C39.728 161.806 44.7338 162.847 50.3472 162.847C56.5393 162.847 61.8055 161.545 66.1458 158.941C70.4861 156.337 73.7847 152.517 76.0416 147.483C78.3565 142.39 79.5139 136.169 79.5139 128.819V1.73611Z" fill="black"/>
<path d="M81.5972 3.81944H100.694V122.222H81.5972V3.81944Z" fill="black"/>
<path d="M200 179L177 179L177 -2.01073e-06L200 0L200 179Z" fill="black"/>
<path d="M100.694 99.0972L100.694 80L177.083 80L177.083 99.0972L100.694 99.0972Z" fill="black"/>
</svg>
